<?xml version="1.0" encoding="UTF-8"?>
<svg id="Layer_1" data-name="Layer 1" xmlns="http://www.w3.org/2000/svg" viewBox="0 0 496.69 284.43">
  <defs>
    <style>
      .cls-1 {
        fill: none;
        stroke: #fff;
        stroke-linecap: round;
        stroke-linejoin: round;
        stroke-width: .75px;
      }
    </style>
  </defs>
  <path class="cls-1" d="M494.39,229.44c-.56-.37-1.18-.16-1.76-.16-17.01-.01-34.01.07-51.02-.07-4.52-.04-9.03.07-13.55.07-2.03,0-3.75-.34-5.51-1.7-4.12-3.19-8.71-5.71-13.32-8.16-13.2-7-27.25-11.5-41.86-14.47-8.96-1.82-18-2.81-27.1-3.5-8.27-.63-16.55-.53-24.8-.23-9.63.35-19.2,1.57-28.69,3.53-12.32,2.55-24.33,5.98-35.88,10.97-7.4,3.2-14.57,6.84-21.12,11.6-.56.41-1.23.65-1.4,1.42"/>
  <path class="cls-1" d="M275.35,228.73c-.48.52-1.1.58-1.76.53-3.98-.31-7.98-.24-11.96-.15-7.45.16-14.9.29-22.34.09-3.63-.1-7.33-.24-10.9-.13-11.68.37-23.35-.12-35.01.23-5.7.17-11.19-1.02-16.71-2.02-10.45-1.9-20.94-3.59-31.5-4.67-6.08-.62-12.19-.8-18.29-1.13-4.46-.25-8.92-.43-13.37-.28-10.75.36-21.5.72-32.2,2.05-9.05,1.12-18.09,2.21-27.1,3.68-5.96.98-11.93,1.98-17.94,2.69-1.14.14-2.21-.34-3.34-.39-6.98-.32-13.96-.04-20.94-.14"/>
  <path class="cls-1" d="M.38,251.96c1.05-.23,2.11-.18,3.17-.18,9.91,0,19.82-.06,29.73,0,51.25.36,102.51.18,153.76.11,18.77-.03,37.53-.05,56.3-.1,17.01-.05,34.01-.01,51.02-.01h167.66c8.44,0,16.89,0,25.33.01.58,0,1.2-.21,1.76.16"/>
  <path class="cls-1" d="M214.66,210.61h-125.61"/>
  <path class="cls-1" d="M354.35,90.28c-5.78-1.11-11.5-2.42-17.07-4.38-8.1-2.85-16.04-6.08-23.74-9.88-14.11-6.97-27.61-15.02-40.83-23.55-7.84-5.06-15.77-10-23.58-15.12-3.63-2.38-7.38-4.55-11.24-6.54-3.86-1.99-7.49-1.5-11.1.7-5.71,3.49-11.09,7.48-16.71,11.09-1.77,1.14-3.56,2.24-5.45,3.18-.72.36-1.55.58-1.94,1.4"/>
  <path class="cls-1" d="M494.56,68.46c-6.32-2.47-12.45-5.3-18.33-8.75-7.43-4.35-14.66-9.08-22.49-12.71-6.13-2.85-12.52-4.71-19.35-4.38-5.8.28-11.25,2.05-16.54,4.37-7.94,3.47-15.54,7.66-23.57,10.93-1.98.81-4.18,1.01-5.99,2.28"/>
  <path class="cls-1" d="M462.02,182.46c.39,1.93.05,3.87.2,5.81,6.77,1.21,11.17-1.35,14.36-6.19,2.92-4.43.41-12.67-4.71-12.85-1.24-.04-1.7-1.04-1.77-2.25-.13-2.31-1.21-4.18-2.8-5.81-2.41-2.46-6.62-3.1-9.85-.34-1.44,1.23-2.71,2.63-3.18,4.56-.18.73-.51,1.17-1.4,1.26-4.33.46-6.72,3.39-7.4,7.89-.69,4.56,1.28,7.9,4.76,10.55,2.96,2.25,6.31,3.28,10.02,3.17.53-.01,1.08-.07,1.74.28.39,3.22.12,6.57.2,9.92"/>
  <path class="cls-1" d="M411,71.8c-6.79-2.1-12.87-5.68-18.99-9.16-6.03-3.43-12.18-6.49-19-8.12-6.74-1.6-13.19-.99-19.54,1.61-6.61,2.71-12.99,5.93-19.34,9.18-6.3,3.22-12.76,6.03-19.53,8.09-.88.27-1.87.36-2.47,1.22"/>
  <path class="cls-1" d="M257.23,77.78c-8.28-3.44-16.1-7.81-23.92-12.15-12.78-7.08-25.18-14.81-37.47-22.69-2.25-1.44-4.3-3.16-6.68-4.41-2.47-1.29-5.02-1.43-7.56-.49-4.28,1.58-8.18,3.91-12.16,6.11-12.08,6.71-23.77,14.11-35.9,20.75-1.44.79-2.78,1.82-4.38,2.31"/>
  <path class="cls-1" d="M302.45,134.26c1.91.81,3.93,1.02,5.97,1.29,3.91.52,6.53-3.71,5.99-6.74-.09-.52.17-1.09-.15-1.6,2.05-1.58,3.5-3.41,3.37-6.32-.13-2.92-2.11-4.1-4.3-4.65-1.99-.5-2.46-1.46-2.65-3.26-.45-4.18-3.31-7.1-6.65-7.7-4.79-.87-8.62,1.59-10.16,6.31-.12.35-.5.57-.41,1.05.23,1.22-.53,1.78-1.57,2.11-3.51,1.13-5.15,4.98-3.73,8.81.42,1.12,1.19,1.86,1.98,2.62.6.57.67,1.09.58,1.95-.32,2.99,1.22,5.23,3.67,6.62,1.98,1.12,4.22,1.61,6.31-.1.42-.34.97-.59,1.57-.54"/>
  <path class="cls-1" d="M429.82,190.56c3.46-.21,5.41-2.89,6.13-5.99,1.43-6.19.13-12.06-2.4-17.77-.82-1.84-1.44-3.74-2.83-5.28-1.11-1.22-1.78-1.26-2.64.19-2.47,4.13-3.79,8.7-4.75,13.37-.61,2.97-.8,5.98-.17,8.97.77,3.63,3.65,6.19,6.32,6.16"/>
  <path class="cls-1" d="M130.21,269.2c-2.38-.55-4.78-.99-7.21-1.25-1.57-.17-2.94.41-4.21,1.11-2.44,1.34-4.86,1.25-7.22.11-2.67-1.28-5.22-1.61-7.94-.17-1.73.92-3.63,1.06-5.43.19-3.16-1.53-6.29-1.57-9.51-.18-3.25,1.4-6.53.48-9.65-.39-3.72-1.05-7.24-.96-10.75.59"/>
  <path class="cls-1" d="M364.9,36.97c-1.69-.39-3.4-.15-5.1-.16-5.16-.04-10.32-.01-15.48-.01-.31-5.51-5.16-7.37-9.39-5.53-1.72-6.14-6.38-8.26-12.06-7.36-5.61.89-8.82,4.78-9.28,10.58-.88.24-1.6-.13-2.35-.33-3.39-.89-7.44,1.08-7.48,5.27h-15.57"/>
  <path class="cls-1" d="M17.97,126.52c-.34,1.28-.09,2.58-.2,3.87,4.61.47,9.74-3.13,10.21-9.15.5-6.41-3.5-10.78-8.08-11.36-6.73-.86-11.81,3.14-12.46,8.9-.74,6.56,3.81,11.79,10.36,11.79v10.2"/>
  <path class="cls-1" d="M151.67,260.05c-.56.37-1.18.16-1.76.16-10.03.02-20.06.15-30.08-.03-9.56-.17-19.12-.24-28.68-.09-11.09.18-22.17.03-33.25.13-.29,0-.64-.16-.88.17"/>
  <path class="cls-1" d="M465.53,269.37c-18.77,0-37.53,0-56.3.01-.58,0-1.2-.21-1.76.16"/>
  <path class="cls-1" d="M360.33,282.04c-2.56-1.1-5.2-.95-7.73-.13-2.59.84-5.03.56-7.39-.44-1.73-.74-3.38-1.13-5.11-.3-3.71,1.79-7.37,1.46-11.1,0-2.39-.93-4.91-.72-7.18.21-3.37,1.38-6.56,1.14-9.88-.03-3.28-1.15-6.55-.98-9.67.68"/>
  <path class="cls-1" d="M412.58,251.6c-.54-2.46,0-4.93.07-7.39.03-1.08-.04-1.87-.77-2.65-4.12-4.36-9.44-6.24-15.13-7.39-9.51-1.93-18.9-1.45-28.14,1.44-2.82.88-5.37,2.39-7.55,4.4-1.33,1.23-2.47,2.51-1.7,4.76.49,1.42.09,3.14.09,4.72v2.02"/>
  <path class="cls-1" d="M353.64,251.43c.13-2.64-.2-5.29.46-7.93.32-1.28-.84-2.39-1.71-3.31-2.27-2.38-5.16-3.76-8.25-4.77-8.25-2.68-16.67-2.84-25.15-1.56-3.94.59-7.73,1.72-11.1,4-1.59,1.07-2.94,2.33-4.03,3.89-.64.92-.48,1.92-.4,2.99.18,2.22-.08,4.46.22,6.68"/>
  <path class="cls-1" d="M245.09,251.52c.18-2.67-.31-5.36.62-8.03.42-1.21-.87-2.34-1.69-3.3-2.6-3.07-6.15-4.67-9.85-5.77-7.79-2.32-15.68-2.19-23.56-.39-4.76,1.09-9.19,2.88-12.67,6.5-1.1,1.15-1.98,2.05-1.37,4.09.63,2.1.14,4.53.14,6.82"/>
  <path class="cls-1" d="M137.95,116.49c1.07.98,1.98,2.13,3.16,3,1.02.75.77,1.79.52,2.81,4.9.09,8.76-2.81,9.13-8.09.36-5.08-3.2-9.5-8.42-9.89-5.68-.42-9.7,4.08-10.05,8.13-.59,6.89,4.5,10.36,9.35,10.02,0,2.59,0,5.17,0,7.75"/>
  <path class="cls-1" d="M203.05,201.11c0-4.81-.09-9.62.03-14.43.1-4.34-5.16-9.76-10.58-7.9-3.37,1.16-4.85,3.92-5.65,7.19-.4,1.64-.33,3.28-.33,4.93,0,3.4,0,6.8,0,10.2"/>
  <path class="cls-1" d="M460.61,145.34c-.57-3.62-.71-7.27-1.04-10.91-.59-6.44-1.05-12.9-1.62-19.35-.64-7.09-1.38-14.16-1.19-21.29.03-1.33-.18-1.91-1.78-1.65-1.41.23-2.92.2-4.39-.08-1.11-.21-1.65.27-1.6,1.56.28,7.83-.62,15.61-1.18,23.4-.49,6.86-.96,13.72-1.45,20.58-.28,3.99-.42,7.99-.86,11.96"/>
  <path class="cls-1" d="M169.62,22.01c-3.58,0-7.15-.03-10.73.02-.78.01-1.36-.15-1.57-.9-1.21-4.17-5.88-5.77-9.71-4.09-.62.27-1.27.85-2.23.61-.74-3.95-2.38-7.36-5.83-9.72-2.58-1.77-5.43-2.46-8.45-2.24-6.42.46-11.68,4.17-13.4,12.15-2.05-.98-4.27-1.15-6.28-.33-2.34.96-4.07,2.7-4.19,5.51-1.14.43-2.28.17-3.4.24"/>
  <path class="cls-1" d="M298.05,251.43v-5.28c0-.23-.06-.49,0-.7,1.33-4.3-1.85-6.1-4.61-7.88-4.83-3.11-10.3-4.25-15.98-4.44-5.76-.19-11.44.14-16.89,2.28-4.14,1.62-8.06,3.5-10.2,7.75-.52,1.04-1.55.34-2.31.65-.59.24-1.41.2-2.09-.12"/>
  <path class="cls-1" d="M288.72,260.93c-2.15-.91-4.44-.85-6.48-.1-2.61.95-5.09.64-7.58.04-1.34-.32-2.64-.45-3.87-.08-2.29.69-4.5.62-6.69-.22-3.16-1.2-6.41-1.29-9.48-.11-4.34,1.68-8.44,1.21-12.71-.18-2.19-.71-4.58-.77-6.84.12"/>
  <path class="cls-1" d="M465.01,251.6c-.31-2.6-.24-5.17.32-7.75.27-1.23-.73-2.12-1.4-2.96-2.75-3.47-6.5-5.29-10.71-6.36-8.67-2.2-17.27-2.09-25.67,1.1-3.32,1.26-6.3,3.13-8.49,6.09-.78,1.05-.93,1.9-.75,3.2.3,2.13.08,4.33.08,6.5"/>
  <path class="cls-1" d="M53.51,212.9c-2.87.46-5.75.08-8.62.1-.94,0-1.87.13-2.82.11-5.98-.15-11.96.07-17.95-.15-2.27-.08-4.57.14-6.86.11-3.81-.05-7.63.18-11.43-.18-.73-.07-.5.37-.53.72"/>
  <path class="cls-1" d="M137.78,178.42h-48.56"/>
  <path class="cls-1" d="M399.74,157.48c.63-1.82,1.56-3.56,1.08-5.64-.53-2.3-1.06-4.51-3.72-5.28-.81-.24-.67-.95-.71-1.58-.17-2.46-1.1-4.46-3.52-5.44-1.78-.72-2.92-.12-3.13,1.75-.16,1.41-.55,2.32-1.94,3.04-2.85,1.48-3.77,3.98-3.22,7.34.12.76.43,1.48-.46,2.33-3.46,3.3-3.6,6.43-.75,10.16-2.23,4.16.52,9.24,5.46,10,.85.13,1.76.49,2.64.02"/>
  <path class="cls-1" d="M2.49,88.34c5.16-2.1,10.3-4.24,15.29-6.71,2.04-1.01,3.97-2.38,6.03-3.22,3.94-1.61,7.58-3.75,11.41-5.53,8.12-3.77,16.04-8.02,24.62-10.74,4.29-1.36,8.7-2.06,13.19-2.11,3.28-.04,6.63-.36,9.84.23,6.26,1.15,12.42,2.74,17.62,6.78.88.68,1.83,1.44,2.19,2.34.51,1.29,1.5,1.29,2.37,1.34,4.92.28,8.79,2.63,12.32,5.83,2.78,2.52,5.32,5.31,8.6,7.25,1.47.86,2.99,1.55,4.59,2.09"/>
  <path class="cls-1" d="M47.52,103.12c-.29,2.23-.25,4.46.03,6.69,3.99.54,7.81-2.45,8.21-6.69.45-4.83-1.86-8.85-6.84-9.61-5.15-.79-8.92,2.82-9.48,6.8-.81,5.72,2.44,9.51,8.09,9.68,0,2.04,0,4.1,0,6.15"/>
  <path class="cls-1" d="M158.36,282.74c-1.17.15-2.22-.38-3.34-.55-2.31-.36-4.43,0-6.53,1.05-1.81.89-3.81,1.02-5.79.55-3.13-.75-6.19-1.88-9.51-1.23-.83.16-1.67.32-2.45.57-2.63.86-5.18.76-7.75-.2-3.71-1.37-7.41-1.16-11.08.17"/>
  <path class="cls-1" d="M214.31,280.46c.16-.6-.22-.72-.7-.9-2.57-.92-5.2-1-7.73-.12-2.99,1.04-5.86,1.06-8.81-.03-3.26-1.2-6.58-1.09-9.84,0-3.31,1.11-6.55,1.17-9.87,0-2.75-.96-5.58-1.23-8.44-.37"/>
  <path class="cls-1" d="M258.46,267.96c-2.56.88-5.12.89-7.75.2-1.69-.44-3.4-.24-5.1.3-2.41.75-4.81.8-7.22-.3-3.45-1.58-7.06-1.32-10.53-.14-2.13.72-4.22.82-6.15.06-2.91-1.16-5.66-.87-8.47.07"/>
  <path class="cls-1" d="M400.79,260.4c.16.6-.2.75-.7.89-2.1.6-4.12.33-6.17-.34-2.32-.76-4.58-.78-6.89.44-1.28.68-2.89.7-4.37.07-3.34-1.43-6.63-1.81-10.05-.04-1.81.94-3.86.78-5.59-.34-1.68-1.09-3.37-.98-5.12-.48-1,.28-1.97.64-2.98.92-1.66.45-3.18.45-4.77-.21-1.74-.72-3.57-1.1-5.45-1.24"/>
  <path class="cls-1" d="M266.38,144.99c1.07.98,1.96,2.15,3.17,2.99.69.48.72,1.18.72,1.93,0,1-.14,2.01.2,3.11,2.72.25,5.34-.15,7.7-1.7,3.44-2.27,3.9-7.19,1.02-10.34-1.04-1.14-1.54-2.08-1.45-3.73.18-3.37-3.41-7.51-7.13-7.54-3.89-.03-6.82,2.29-7.6,6.3-.28,1.45.28,2.7.42,4.17-2.34,2.18-3.79,4.79-2.65,8.15.72,2.11,2.21,3.54,4.38,4.24,1.73.56,3.51.51,5.12.52-.03,2.34-.01,4.52-.02,6.69"/>
  <path class="cls-1" d="M135.31,164.87c-14.07,0-28.15,0-42.22-.01-.58,0-1.2.21-1.76-.16"/>
  <path class="cls-1" d="M135.31,159.59c-.56.37-1.18.16-1.76.16-14.07.02-28.15.01-42.22.01"/>
  <path class="cls-1" d="M156.95,87.46c.93-.9,2.24-.92,3.36-1.36,4.49-1.8,4.89-8.33,2.11-10.62-1.08-.89-2.28-1.01-3.53-1.06-.32-1.49-.68-2.89-1.41-4.19-2.7-4.79-8.95-3.6-11.09.18-.56,1-1.19,1.72-2.46,1.98-2.26.46-3,2.32-3.33,4.36-.09.53,0,1.09-.28,1.58"/>
  <path class="cls-1" d="M252.83,122.12c-.32-1.7-.21-3.4-.04-5.23,2.39-.05,4.44-.99,5.8-2.89,1.16-1.62,1.75-3.59,1.42-5.6-.75-4.49-3.81-7.09-8.24-6.66-4.04.39-7.22,3.34-6.86,8.06.32,4.3,4.27,7.4,7.74,6.86v-6.51"/>
  <path class="cls-1" d="M311.77,93.27c-14.19-.13-28.38.28-42.58.18"/>
  <path class="cls-1" d="M87.28,282.04h-42.22"/>
  <path class="cls-1" d="M119.13,200.94c0-2.64.05-5.28-.02-7.92-.05-1.94.36-3.83-.11-5.82-.93-3.93-5.25-5.86-8.48-3.48-2.08,1.52-3.34,3.54-3.21,6.31.18,3.63-.16,7.28.2,10.91"/>
  <path class="cls-1" d="M73.21,126.52c2.24-.22,4.47.34,6.72-.81,2.69-1.37,3.72-3.59,3.96-6.23.24-2.62-1.43-4.41-3.48-5.78-.51-.34-1.04-.72-1.68-.95.51-2.97-.57-5.37-3.08-6.96-1.91-1.22-4.08-1.05-5.94.17-2.02,1.33-3.02,3.26-2.29,5.75-.69.76-1.4,1.49-2.31,1.95-4.17,2.14-3.54,9.56.31,11.7,2.55,1.42,5.02,1.14,7.61.98"/>
  <path class="cls-1" d="M252.66,171.73c1.67-3.31,1.19-5.29-.57-7.53-1.76-2.25-5.16-2.69-7.51.85-1.34,2.01-1.29,2.04-.89,6.33-1.5.89-3.43.95-4.44,2.79-.95,1.73-.29,3.21.22,4.77.1.58-.41.78-.72,1.04-4.31,3.64-1.93,8.98,2.46,10.77,1.95.79,3.88.45,5.81.3,2.03-.15,1.97-.25,1.95,1.79-.04,3.05-.01,6.1-.01,9.15"/>
  <path class="cls-1" d="M472.22,260.75c-1.71-.31-3.46-.37-5.09.21-1.9.67-3.85.78-5.62.09-4.11-1.6-8.14-1.31-12.15.08-2.72.95-5.27.73-7.94-.17-2.19-.74-4.43-1.45-6.86-.95-.86.18-1.53.86-2.46.74"/>
  <path class="cls-1" d="M23.07,187.39c3.49,3,8.7,1.98,11.76.13,3.07-1.85,3.64-6.69,1.43-9.98-.37-.55-.8-1.07-1.29-1.46,3.06-6.27.65-13.57-6.88-11.9-.55-.98-.25-2.14-.57-3.2-1-3.22-3.13-5.05-6.38-5.4-2.96-.32-5.56.66-7.35,3.15-.52.72-.68,1.72-.9,2.62-.36,1.44-.13,2.93-.19,4.4"/>
  <path class="cls-1" d="M275.18,279.75h-39.41"/>
  <path class="cls-1" d="M187.56,269.2c-.3-.37-.71-.16-1.06-.17-11.02-.01-22.05-.01-33.07,0-.35,0-.76-.2-1.06.17"/>
  <path class="cls-1" d="M65.82,18.5h-8.8c-1.62-4.34-3.16-5.06-8.47-3.82-1.93-4.59-5.84-6.21-10.33-5.2-4.34.98-5.76,4.68-5.49,9.02-4.33,0-8.5,0-12.66,0"/>
  <path class="cls-1" d="M309.84,269.72c-3.33,1.16-6.57.66-9.86-.31-2.48-.74-4.98-.66-7.39.64-1.67.89-3.62,1.4-5.42.69-3.75-1.49-7.46-1.75-11.28-.48"/>
  <path class="cls-1" d="M460.96,211.84c-.56-.37-1.18-.16-1.76-.16-10.67-.02-21.35-.01-32.02-.01"/>
  <path class="cls-1" d="M481.72,139.71v-12.07c2.81,1.12,5.23,1.27,7.56.94,6.5-.94,9.18-8.42,5.09-13.34,1.87-2.87,2.1-5.86.17-8.76-1.39-2.08-3.38-2.65-6.19-2.12-.81-2.75-2.29-4.9-5.22-5.83-3.96-1.27-8.13.8-8.91,4.78-.3,1.54-1.36,1.31-2.19,1.54-2.68.74-4.07,2.65-4.71,5.14-.64,2.47.37,5.25,2.34,6.93-.97,1.21-1.71,2.52-1.87,4.15-.38,3.96,2.7,6.82,6.35,7.76,2.01.52,4.02.5,5.97-.08.55-.16,1.07-.19,1.6-.28"/>
  <path class="cls-1" d="M347.31,43.3c-11.14-.01-22.29.06-33.43-.18"/>
  <path class="cls-1" d="M327.78,112.09c2.6.16,4.22-1.25,5.47-3.33.55-.92.57-1.82.35-2.83-.7-3.17-3.33-5.25-6.52-5.1-2.61.12-4.97,2.6-5.27,5.63-.26,2.55,1.36,4.8,4.4,5.77.36.11.8.24,1.22.21"/>
  <path class="cls-1" d="M203.4,217.82c-2.57.38-5.17.26-7.74.13-3.29-.17-6.57,0-9.86-.05-4.8-.08-9.62.25-14.42-.08"/>
  <path class="cls-1" d="M491.57,160.47c.09-2.85-.83-5.34-2.82-7.38-2.41-2.46-5.65-2.42-7.9.18-2.18,2.52-2.75,5.58-2.27,8.78.36,2.4,2.13,3.7,4.37,4.2,3.9.87,7.13.08,8.46-3.84.21-.61.06-1.18.15-1.77"/>
  <path class="cls-1" d="M245.97,93.79c-4.46.1-8.92-.21-13.37.17-.29.02-.57.04-.89-.15-5.34-3.19-10.61-2.84-15.83.32-.14.09-.4-.03-.52.19"/>
  <path class="cls-1" d="M70.75,169.8c.15-2.46.61-4.8,1.72-7.06,1.52-3.08,3.89-4.38,7.25-4.6,5.93-.38,8.7,3.9,9.35,8.13.19,1.2.06,2.54.94,3.57,1.26-.72.85-1.96.91-2.87.21-2.86.04-5.74.22-8.62.2-3.27,1.04-6.36,2.34-9.31,1.89-4.3,4.17-8.39,7.7-11.63,2.22-2.04,4.74-3.6,7.58-4.53,2.15-.71,4.46-.51,6.66-.3.82.08,1.52-.62,2.3-.09,2.47,1.67,5.35,2.66,7.57,4.75,6.38,6.03,9.56,13.51,10.42,22.17.33,3.36-.34,6.69.09,10.04.13,1.01-.89,1.06-1.71,1.06-10.91,0-21.82,0-32.72,0-2.93,0-5.86-.02-8.8.01-.81,0-1.53-.12-2.11-.72"/>
  <path class="cls-1" d="M420.14,280.1c-1.35-.53-2.7.03-4.05.02-8.74-.04-17.48-.02-26.21-.02"/>
  <path class="cls-1" d="M483.83,277.99h-30.26"/>
  <path class="cls-1" d="M209.73,172.79c-.62-.3-1.29-.17-1.94-.17-8.27,0-16.54-.02-24.81.02-1.05,0-2.09-.38-3.2.07-.4.16-1.57-.17-1.38-1.33.1-.64-.1-1.31.18-2.11h32.35q.37,2.77-1.03,3.61"/>
  <path class="cls-1" d="M404.13,102.41h-29.38"/>
  <path class="cls-1" d="M404.13,133.73h-29.38"/>
  <path class="cls-1" d="M404.13,127.4h-29.38"/>
  <path class="cls-1" d="M404.13,96.08c-5.22.38-10.44.11-15.66.17-4.52.05-9.03,0-13.55,0"/>
  <path class="cls-1" d="M404.13,121.06c-9.15,0-18.3,0-27.45.01-.58,0-1.2-.21-1.76.16"/>
  <path class="cls-1" d="M374.93,108.57h29.03"/>
  <path class="cls-1" d="M374.93,114.91h29.03"/>
  <path class="cls-1" d="M216.07,156.6c.48,2.32,2.07,3.57,4.23,4.02,3.36.7,5.97-.34,7.18-3.75,2.69,1.12,5.22.65,6.71-1.15,1.88-2.27,2.35-6.26.45-8.19-1.28-1.3-1.14-2.38-.81-3.77,1.04-4.35-1.77-6.93-6.62-5.96-1.29-3.46-3.98-4.47-7.45-4.08-2.85.33-3.51,2.64-4.32,4.8-2.59-.57-4.9-.24-6.38,2.08-1.49,2.34-1.25,4.68.54,6.79-2.03,3.09-2.14,5.69-.39,7.97,1.71,2.22,3.52,2.7,6.69,1.76"/>
  <path class="cls-1" d="M399.38,157.66c3.97,1.82,5.1,4.29,3.68,8.26-.42,1.17-.48,2.05.31,3.21,1.62,2.37.79,5.73-1.91,7.11-2.29,1.17-4.86,1.88-7.53.95-1.72-.6-2.38-1.39-2.27-3.17.43-7.56.03-15.13.16-22.7"/>
  <path class="cls-1" d="M90.8,61.42c1.52-1.12,3.42-1.01,5.12-1.53,3.94-1.19,7.99-2.05,12.12-2.33,3.94-.27,7.82-.06,11.26,2.27,2.3,1.56,4.16,3.61,5.93,5.68,3.16,3.69,6.68,6.96,10.44,9.97,4.41,3.52,9.22,6.49,14.27,8.93,6.09,2.94,12.12,6.06,18.45,8.49.52.2.81.63,1.24.88.84.49,2.06-.05,2.45-1.04,1.4-3.58,6.18-6.44,10.21-4.58,1.37.63,2.79,2,4.28,4.32,2.69-.88,4.99-.15,6.8,2.03,2.14,2.59,2.64,7.5.02,10.56-1.92,2.23-4.18,3.53-7.22,3.73-4.58.3-9.15.78-13.72.27-3.51-.39-5.59-2.66-6.49-5.96-.82-2.98-.34-5.69,2.26-7.74.45-.36.83-.81,1.24-1.22"/>
  <path class="cls-1" d="M79.02,191.08c1.23-.06,2.48.14,3.9-.18-.14-2.75.18-5.51-.21-8.26-.18-1.27-.69-2.39-2.11-2.42-1.28-.03-1.99.7-2.54,2.04-1.09,2.64-.42,5.31-.6,7.95-.06.87.71.91,1.38.88"/>
  <path class="cls-1" d="M149.56,190.91c0-2.29-.02-4.57,0-6.86,0-.85-.27-1.56-.69-2.3-.54-.96-1.24-1.35-2.31-1.23-1.19.13-1.66,1.02-1.91,1.95-.75,2.84-.21,5.74-.43,8.84,2.05-.13,3.87.11,5.68-.22"/>
  <path class="cls-1" d="M387.77,197.06c-1.43-3.07-3.99-3.84-8.9-2.61-1.59-1.49-3-3.25-5.34-3.93-5.03-1.48-10.45,2.06-11.1,5.84"/>
  <path class="cls-1" d="M89.75,169.8c-.65.44-1.39.35-2.11.35-6.1,0-12.2,0-18.3,0-.36,0-.73-.06-1.11.22-.2,1.13-.2,2.3,0,3.46,1.44.45,2.86.18,4.27.19,4.81,0,9.62-.11,14.43.04,3.58.11,7.14.53,10.73.51,9.38-.05,18.77-.03,28.15-.02,9.56.01,19.11-.57,28.68-.36,1.32.03,2.65.24,3.98-.17.07,0,.04-.13.08-.35.51-3.38.17-3.56-3.18-3.56-6.45,0-12.91.34-19.35-.22"/>
  <path class="cls-1" d="M170.85,197.42c.38-2.34.2-4.7.14-7.04-.04-1.66-1.31-2.75-2.77-2.82-1.32-.06-2.32.83-2.82,2.46-.74,2.39-.11,4.81-.42,7.26,2.05.34,3.9-.12,5.7.31"/>
  <path class="cls-1" d="M39.08,263.57c-.56-.37-1.18-.16-1.76-.16-8.44-.02-16.89-.01-25.33-.01"/>
  <path class="cls-1" d="M411,195.66c2.35.84,4.22.32,5.63-1.58,1.18-1.6,1.19-4.19,0-5.8-.24-.33-.53-.68-.88-.87-1.64-.89-2.41-2.37-3-4.05-.56-1.59-1.92-2.25-3.5-2.27-1.54-.02-3.1,1.33-3.5,2.97-.35,1.41-.64,2.5-2.46,2.9-1.83.4-2.83,2.93-2.48,5.01.36,2.19,2.13,3.6,4.57,4.09,1.63.33,3.18-.49,4.76-.05.11.03.31.05.34,0,.71-1.31,2.47-1.82,2.65-3.51"/>
  <path class="cls-1" d="M494.74,233.31c-4.23.1-8.5-.42-12.66.72-4.36,1.19-8.46,2.82-10.93,7.01-.67,1.15-.91,2.09-.63,3.55.42,2.2.25,4.56-.05,6.84"/>
  <path class="cls-1" d="M76.02,79.54c-.7-2.08-1.49-4.09-3.16-5.64-3.48-3.22-10.51-1.74-12.3,2.66-.27.66-.6.86-1.25.88-2.5.08-4.41,1.14-5.45,3.51"/>
  <path class="cls-1" d="M30.63,205.33c.87-.26,1.76-.17,2.64-.17,14.37,0,28.74,0,43.1,0"/>
  <path class="cls-1" d="M70.04,189.32c-1.91-.87-3.35-2.76-5.89-2.47.59-2.41-.03-4.35-1.1-6.35-1.91-3.57-7.43-3.65-9.04.55-.12.32-.23.65-.36.98-4.52.3-6.26,2.74-5.1,7.13.19.71.39,1.36-.46,2.15-3.88,3.64-2.58,9.39,2.41,11.22.42.15.82.35,1.23.52"/>
  <path class="cls-1" d="M444.77,137.07c-2.58-.04-5.15.24-7.74.21-6.92-.09-13.84-.03-20.76-.03-2.52,0-5.06.17-7.56-.26"/>
  <path class="cls-1" d="M58.43,273.07h-23.57"/>
  <path class="cls-1" d="M253.36,171.2c1.23.23,2.62.05,3.67.74,1.5.98,2.3,2.46,2.15,4.36-.07.92,0,1.61.99,2.36,2.83,2.12,3.77,4.95,2.66,8.72-.88,3-4.35,5.27-7.71,5.28-1.66,0-3.33.09-4.77-1.03-.22-.17-.69-.02-1.04-.02"/>
  <path class="cls-1" d="M45.41,58.61c1.84.22,3.64.23,5.46-.32,2.44-.74,3.64-2.46,4.01-4.78.36-2.25-.48-4.02-2.6-5.11-1.19-.61-1.95-1.48-2.16-2.97-.47-3.23-2.82-4.65-5.76-5.28-2.5-.53-4.74-.06-6.5,1.93-.44.5-1.14.8-1.24,1.58"/>
  <path class="cls-1" d="M50.52,204.81c1.82-2.88,4.94-3.19,7.74-3.26,9.73-.23,19.47.03,29.2-.14,4.16-.07,8.33-.09,12.49-.11,10.09-.04,20.18-.14,30.26.03,8.04.13,16.07.09,24.1.13,7.86.03,15.72.07,23.57,0,8.39-.08,16.77-.05,25.16-.07,8.73-.03,17.48-.01,26.21.09"/>
  <path class="cls-1" d="M179.3,177.89c-3.69,0-7.39.02-11.08,0-3.81-.02-7.63.13-11.44-.17"/>
  <path class="cls-1" d="M36.62,43.3c-1.34-2.07-3.07-3.46-5.62-3.9-6.24-1.09-11.23,4.21-9.48,10.23.07.24.11.47.16.79-1.39.47-2.84.91-3.88,2.04-2.2,2.41-1.24,6.05,1.37,7.95,2.58,1.88,5.1,1.61,7.85.49,1.9,3.49,5,4.86,8.89,4.75"/>
  <path class="cls-1" d="M179.3,183.34h-22.52"/>
  <path class="cls-1" d="M181.23,162.93c.54.01,1.04-.09,1.41-.53,3.52-4.15,8.14-7.1,11.89-11.01,1.62.62,2.55,1.98,3.72,2.97,2.66,2.26,5.23,4.63,7.96,6.81.44.35.9.82.68,1.39-.23.58-.79.41-1.38.41-7.15-.07-14.31-.08-21.46.03-.61,0-.8-.37-1.23-.42"/>
  <path class="cls-1" d="M58.08,144.46c0-1.71.27-3.43-.35-5.1-1.51-4.12-5.08-6.01-8.8-3.87-1.39.8-2.45,1.9-3.17,3.34-.59,1.19-1.19,2.37-1.4,3.7"/>
  <path class="cls-1" d="M391.64,271.66c-1.1.37-2.23.16-3.34.16-6.27.03-12.55.01-18.82.01"/>
  <path class="cls-1" d="M493.68,202.69c-.58-2.94-2.82-4.23-5.28-5.27-5.13-2.18-11.11.63-13,6.69-.09.28-.16.51-.37.7"/>
  <path class="cls-1" d="M307.99,207.09c-.37.61-.26,1.28-.26,1.94,0,6.66,0,13.31,0,19.97"/>
  <path class="cls-1" d="M12.16,165.22c-1.27.29-2.58-.25-3.88.33-4.23,1.86-6.11,6.95-2.91,11.02-1.06,1.8-1.95,3.64-2.06,5.89-.17,3.27,2.87,6.35,5.52,7.02,2.75.69,5.38.31,7.74-1.38"/>
  <path class="cls-1" d="M318.81,205.51c0,6.33,0,12.67,0,19,0,.74.2,1.54-.52,2.11"/>
  <path class="cls-1" d="M184.22,146.75c.82-3.28-.58-5.74-3-7.73-2.41-1.98-5.11-1.99-8.01-.91-.93-.67-1.2-1.91-1.96-2.83-2.34-2.85-7.24-2.39-9.54-1.18-3.22,1.69-4.48,4.61-4.76,8.08"/>
  <path class="cls-1" d="M329.19,205.86c1.69,2.51,2.56,5.4,3.85,8.1,1.75,3.65,3.19,7.43,4.94,11.08.61,1.27,1.74,2.35,1.41,3.96"/>
  <path class="cls-1" d="M339.57,206.04c-.11,5.86.18,11.73-.13,17.6-.05.97.3,1.95-.4,2.81"/>
  <path class="cls-1" d="M328.84,205.69c-.83-.75-1.83-.55-2.82-.54-3.69.05-7.39-.04-11.08.17-1.7.1-3.39.36-5.1.41-.59.02-1.39.11-1.82.96,1.06.57,1.53,1.6,2.02,2.68,2.42,5.33,4.86,10.65,7.19,16.02.49,1.13,1.9,1.83,1.59,3.34"/>
  <path class="cls-1" d="M349.24,206.74c-.24.63-.17,1.29-.17,1.94,0,6.74,0,13.49,0,20.23"/>
  <path class="cls-1" d="M89.04,174.55c-.42,1.92-.13,3.87-.15,5.81-.07,6.92-.03,13.84-.03,20.76"/>
  <path class="cls-1" d="M400.79,84.47c-.7.43-1.41-.02-2.11,0-6.22.12-12.44-.23-18.65.2-.46.03-.66-.4-1.06-.37"/>
  <path class="cls-1" d="M452.87,106.99c.53,1.11-.04,2.23-.03,3.34.06,8.85.03,17.71.03,26.57"/>
  <path class="cls-1" d="M404.66,140.06c-.36-2.22-.12-4.46-.17-6.69-.14-6.1.03-12.2-.09-18.3-.05-2.5.02-5.04.06-7.56.1-5.63.03-11.26.04-16.89,0-.23-.29-.3-.12-.68-9.98-.17-19.89.35-29.98.08v62.35"/>
  <path class="cls-1" d="M298.05,207.44c.4.74.15,1.53.16,2.29.05,5.28-.05,10.56.18,15.83.05,1.06-.91,2.03-.34,3.17"/>
  <path class="cls-1" d="M27.82,237c-1,0-2.02-.15-2.99.03-4.4.8-6.49,4.12-6.51,7.72-.02,2.23,0,4.46,0,6.69"/>
  <path class="cls-1" d="M14.8,251.43c0-2.11,0-4.22,0-6.33,0-4.56-2.85-7.9-7.39-8.6-.69-.11-1.39-.31-2.11-.19"/>
  <path class="cls-1" d="M350.65,207.09c.67,2.72,2.28,5.02,3.36,7.56,1.42,3.36,2.88,6.71,4.41,10.02.65,1.42,1.94,2.56,1.73,4.32"/>
  <path class="cls-1" d="M199.53,260.58c-5.86,0-11.73,0-17.59-.01-.58,0-1.2.21-1.76-.16"/>
  <path class="cls-1" d="M453.04,64.06c-.13,2.52.25,5.04,0,7.57-.06.64-.12,1.28.51,1.77.56.45.32,1.14.36,1.75.44,5.58.89,11.16,1.58,16.71"/>
  <path class="cls-1" d="M453.04,73.03c-.85.31-.83,1.01-.89,1.76-.48,5.71-1.2,11.39-1.92,17.07"/>
  <path class="cls-1" d="M333.23,145.69h-19v14.43"/>
  <path class="cls-1" d="M138.13,174.72c.24,4.34.32,8.69.13,13.02-.15,3.41-.02,6.81-.13,10.21-.03,1.06.21,2.11.18,3.17"/>
  <path class="cls-1" d="M370.18,210.44c-.28.56-.17,1.17-.17,1.76,0,5.6,0,11.2,0,16.8"/>
  <path class="cls-1" d="M283.27,179.3c-2.65,3.92,1.65,8.18,5.27,9.03,2.69.63,4.88-.54,7.23-1.28"/>
  <path class="cls-1" d="M288.37,209.2c2.76,5.42,5.41,10.9,8.07,16.37.32.65.56,1.26,1.25,1.57"/>
  <path class="cls-1" d="M360.33,208.32c-.27,4.75-.26,9.5-.03,14.25.06,1.29.39,2.68-.5,3.87"/>
  <path class="cls-1" d="M209.91,172.96v28.24"/>
  <path class="cls-1" d="M210.26,178.24c.12,0,.24.02.35,0,3.48-.9,4.95,1.57,6.5,3.88.2.29.37.78.16,1.03-.82.98-.48,2.12-.49,3.18-.04,4.93-.02,9.85-.02,14.78"/>
  <path class="cls-1" d="M179.82,172.96c0,3.46-.32,6.94-.26,10.38.08,4.69-.03,9.38.08,14.08.03,1.26.44,2.52,0,3.78"/>
  <path class="cls-1" d="M156.07,198.47h-17.59"/>
  <path class="cls-1" d="M70.92,198.3c3.81,0,7.62,0,11.44,0,2.05,0,4.11-.06,6.16.17"/>
  <path class="cls-1" d="M287.14,209.56v19.53c-2.64,0-5.3-.21-7.91.06-2.49.26-3.72-.31-4.89-2.81-1.89-4.04-4.06-8-6.38-11.85"/>
  <path class="cls-1" d="M124.41,226.09c-1.4,1.1-1.92,2.78-2.82,4.22-2.42,3.83-4.6,7.8-7.03,11.62-.24.37-.39.78-.35,1.23"/>
  <path class="cls-1" d="M432.11,151.67c-.36-1.61-.73-3.17-1.73-4.6-1.83-2.62-5.72-2.79-7.8-.53-1.31,1.43-1.93,3.22-2.97,4.77"/>
  <path class="cls-1" d="M277.46,211.67c.39.49.16,1.06.16,1.58,0,5.22.02,10.44.01,15.66"/>
  <path class="cls-1" d="M371.59,210.61c-.03,1.23.92,2.01,1.43,2.98,2.13,3.98,3.85,8.16,5.96,12.15.36.68.6,1.44,1.41,1.76"/>
  <path class="cls-1" d="M348.72,173.67c-4.46-.11-8.92.22-13.37-.17-1-.09-1.37.35-1.43,1.4-.31,4.93-.06,9.85-.15,14.78"/>
  <path class="cls-1" d="M155.72,242.81c0-.18-.08-.44.01-.51,3.83-3.13,6.32-7.4,9.48-11.1.5-.59,1.06-1.09,1.83-1.33-.19-.76-.61-1.06-1.3-1.14-5.65-.65-11.24-1.63-16.89-2.29-.98-.11-1.89.7-2.81.34-4.62-1.82-9.53-.86-14.26-1.56-1.52-.22-3.05-.16-4.57-.18-.9-.01-1.78-.02-2.29.69v17.43"/>
  <path class="cls-1" d="M129.16,184.75c-2,.17-2.86.93-3.17,2.81-.42,2.57-.02,5.16-.23,7.87,2.09.48,4.15.09,6.39.27,0-2.62.11-5.03-.04-7.43-.1-1.62-.59-3.2-2.6-3.52"/>
  <path class="cls-1" d="M370.53,166.98c-.38.25-.82.17-1.23.17-10.67,0-21.35,0-32.02,0-.24,0-.53.12-.7-.17"/>
  <path class="cls-1" d="M116.14,29.23h17.24"/>
  <path class="cls-1" d="M108.75,225.39c0,4.69,0,9.38,0,14.07,0,.76.05,1.51-.53,2.11"/>
  <path class="cls-1" d="M438.97,121.24c-1.53.89-3.17.28-4.75.33-5.28.16-10.56-.16-15.83.19-1.29.09-2.61.13-3.86-.2-.58-.15-.98-.12-1.42.21"/>
  <path class="cls-1" d="M146.22,226.97c-.37,2.93-.11,5.86-.17,8.8-.04,2.4,0,4.81,0,7.21"/>
  <path class="cls-1" d="M369.48,161.7c-.62.3-1.29.17-1.94.17-10.03,0-20.06,0-30.08,0"/>
  <path class="cls-1" d="M71.1,41.01c2.16.38,4.36.28,6.51.12,2.59-.19,5.17-.02,7.74-.12,3.05-.12,6.11.22,9.15-.18"/>
  <path class="cls-1" d="M409.24,136.72c2.6-2.9,5.89-5.01,8.78-7.58.52-.46,1.06-.33,1.6-.33,4.57-.01,9.15.01,13.72-.03.88,0,1.44.36,2.14.86,2.65,1.9,4.88,4.31,7.53,6.21.25.18.4.51.36.87"/>
  <path class="cls-1" d="M191.61,107.34c2.64,1.88,5.77,2.79,8.66,4.14,4.78,2.23,9.64,4.32,14.57,6.23,3.01,1.17,6.09,2.16,9.11,3.28,3.62,1.34,7.31,2.47,10.94,3.79.32.12.6.09.89.15"/>
  <path class="cls-1" d="M125.11,226.09c1.61.63,1.88,2.31,2.58,3.55,1.94,3.4,3.85,6.82,5.91,10.14,1.29,2.07,2.79,3.89,5.94,3.64,4.61-.36,9.26-.09,13.89-.09,6.04,0,12.08.03,18.12-.02,1.76-.01,3.58.77,5.28-.34,5.78.89,11.63-.12,17.42.69.57.08,1.19.12,1.76-.16"/>
  <path class="cls-1" d="M124.23,225.39c-.15-.28-.5-.5-.7-.5-4.69-.05-9.39-.18-14.07.04-2.12.1-4.25-.19-6.33.15-1.41.22-2.95-.37-4.23.66"/>
  <path class="cls-1" d="M20.08,164.69c.35,2.69.14,5.4.17,8.09.04,4.63,0,9.27.01,13.9,0,.77-.06,1.54.17,2.29"/>
  <path class="cls-1" d="M145.17,226.62c-2.04,3.1-3.59,6.48-5.45,9.68-1.1,1.89-1.94,3.92-3.34,5.63"/>
  <path class="cls-1" d="M98.72,226.27c.53.55,1.37,1,.53,1.94-.42.47-.17,1.06-.17,1.58-.02,4.43-.01,8.86-.01,13.28"/>
  <path class="cls-1" d="M147.1,226.97c2.3,4.42,4.7,8.79,7.03,13.2.34.64.64,1.3,1.24,1.76"/>
  <path class="cls-1" d="M368.6,156.42c-4.92.32-9.85.41-14.78.32-1.59-.03-3.16-.07-4.75,0-3.05.13-6.1-.13-9.15-.17-1.84-.02-2.57.28-2.59,2.14-.03,2.76-.79,5.42-1.29,8.06-.42,2.21-.88,4.38-.88,6.63"/>
  <path class="cls-1" d="M156.42,174.72c-.06,7.86.15,15.72-.1,23.58-.03.89.07,1.87.1,2.81"/>
  <path class="cls-1" d="M83.06,60.02c.4-2.45.14-4.93.17-7.39.02-1.66.5-3.06,1.75-4.24,1.23-1.16,2.6-1.42,4.05-.83,1.8.74,2.56,2.35,2.63,4.19.09,2.34.02,4.69.02,7.04,0,.64-.1,1.3.35,1.85"/>
  <path class="cls-1" d="M70.57,174.37c-.08,8.91.14,17.83-.18,26.74"/>
  <path class="cls-1" d="M98.02,226.45c-2.53,4.15-4.75,8.48-7.21,12.67-.34.58-.55,1.22-1.22,1.61-.75.43-1.13,1.18-1.07,2.09"/>
  <path class="cls-1" d="M329.54,175.07c-1.69-2.64-4.04-3.86-6.51-3.34-2.85.61-4.24,2.63-4.92,5.27-.09.36.04.71.17,1.05"/>
  <path class="cls-1" d="M78.49,242.98c0-4.93,0-9.85,0-14.97,1.96,1.06,2.56,2.91,3.49,4.43,1.65,2.69,3.39,5.33,4.95,8.08.37.65.91,1.11,1.59,1.41"/>
  <path class="cls-1" d="M381.09,213.07c-.4,4.22-.17,8.45-.11,12.67.02,1.09-.91,2.07-.25,3.17"/>
  <path class="cls-1" d="M88.52,226.45c.37,1.1.18,2.23.16,3.34-.07,3.17.28,6.33.18,9.5-.02.52.13.97.36,1.41"/>
  <path class="cls-1" d="M371.94,173.31c-3.04.23-6.09.33-9.15.37-1.7.02-3.41-.22-5.1.16"/>
  <path class="cls-1" d="M20.08,189.5c.38,2.1.17,4.22.15,6.33-.02,2.64.25,5.29-.15,7.92"/>
  <path class="cls-1" d="M71.98,37.14c2.63.42,5.28.15,7.92.15,4.52,0,9.04.25,13.55-.15"/>
  <path class="cls-1" d="M99.78,227.68c1.31,1.07,1.75,2.71,2.59,4.07,2.07,3.34,3.61,6.98,5.93,10.18.23.31.04.7.09,1.05"/>
  <path class="cls-1" d="M423.49,228.73c-2.17.92-4.47.61-6.68.44-1.21-.09-2.35.14-3.53.12-7.56-.16-15.13.03-22.7-.14-3.16-.07-6.34-.06-9.5,0-7.04.14-14.08-.02-21.11.02-4.28.02-8.56.04-12.84.08-8.68.07-17.36.02-26.04.02-6.92,0-13.84,0-20.76,0-4.34,0-8.69.09-13.02-.35"/>
  <path class="cls-1" d="M339.39,151.32c.56.37,1.18.16,1.76.16,8.39.02,16.77.01,25.16.01,1.87,0,2.54.46,2.42,2.28-.18,2.61,1.56,4.94.93,7.57,1.14,1.49.86,3.24.88,4.93,0,.24-.07.48.16.71,1.17,1.17,1.24,2.68,1.24,4.21,0,.96-.28,2.03,1.04,2.49.33.12.39.62.37,1.03-.11,1.99.11,3.98-.14,5.99-.12.97.29,1.99-.04,2.99"/>
  <path class="cls-1" d="M266.73,214.83c.08,3.58-.19,7.16.18,10.73.11,1.06-.34,2.11,0,3.17"/>
  <path class="cls-1" d="M135.31,225.74c0,4.57-.07,9.15.07,13.72.02.73-.22,1.19-.42,1.76"/>
  <path class="cls-1" d="M78.14,228.56c-1.95,1.47-2.86,3.73-4.2,5.65-1.35,1.95-2.59,3.98-3.89,5.97-.41.62-.84,1.18-1.59,1.4"/>
  <path class="cls-1" d="M155.9,169.8c.06-3.67-.76-7.01-3.51-9.68-2.39-2.33-5.5-2.45-8.24-1.79-3.28.79-5.87,2.92-6.6,6.71-.32,1.63-.05,3.26-.47,4.85"/>
  <path class="cls-1" d="M438.79,137.6c0,3.93,0,7.86,0,11.79,0,.6.17,1.25-.35,1.76"/>
  <path class="cls-1" d="M156.42,227.85c-.4,4.22-.07,8.45-.17,12.67,0,.34.35.54.35.88"/>
  <path class="cls-1" d="M485.94,34.22c-4.63,0-9.27-.03-13.9.02-1.02.01-1.65-.2-1.95-1.25-1.25-4.43-5.57-5.09-8.96-3.86-.77.28-1.47.72-2.29.86-1.31-7.23-7.61-9.94-13.81-7.21-1.67-5.84-6.7-9.55-12.58-9.64-6.45-.1-11.92,3.87-13.56,11.72-3.02-.87-5.94-1.17-8.8.71-3.05,2.01-4.3,4.75-3.82,8.2-.77.38-1.38.26-1.97.27-5.75,0-11.49,0-17.24.02-.58,0-1.2-.21-1.76.16"/>
  <path class="cls-1" d="M462.19,168.92c0,3.58,0,7.15,0,10.73,0,.77-.06,1.54.17,2.29"/>
  <path class="cls-1" d="M135.49,242.98c-.45.64-1.12.54-1.76.53-6.45-.12-12.9.02-19.35-.08-2.8-.04-5.64.02-8.44.01-4.98,0-9.97-.1-14.95-.11-6.57,0-13.14,0-19.7,0h-35.54"/>
  <path class="cls-1" d="M208.32,114.55c1.28-1.39,2.19-2.89,2.15-4.93-.05-2.14-1.1-3.46-2.85-4.4-2.98-1.59-5.32.49-6,3.33-.24,1,.07,2.03-.33,3"/>
  <path class="cls-1" d="M78.49,228.2c-.2-1.06-.86-1.04-1.76-.9-2.81.44-5.64.77-8.46,1.14-2.62.34-5.26.69-7.9.99-1.76.2-2.45.88-2.46,2.64-.02,3.67,0,7.33,0,11"/>
  <path class="cls-1" d="M385.66,183.52c-2.28-4.58-7.13-4-10.37-2.09-.52.31-.84.97-1.59.86"/>
  <path class="cls-1" d="M390.94,216.42c-.3,3.51-.36,7.03-.35,10.56,0,.65,0,1.29,0,1.94"/>
  <path class="cls-1" d="M340.8,146.05c.12.18.23.18.35.18,8.15,0,16.3.03,24.45-.04,1.66-.02,1.88,1.12,2.06,2.15.17.95.22,2-.12,2.98"/>
  <path class="cls-1" d="M168.04,229.96c2.3,3.39,4.5,6.85,6.85,10.21.44.63.71,1.4,1.59,1.58"/>
  <path class="cls-1" d="M302.27,115.79c.4,3.22.19,6.46.09,9.67-.02.74.5,1.57-.09,2.29"/>
  <path class="cls-1" d="M414.34,137.78v11.79"/>
  <path class="cls-1" d="M166.63,230.32c.67,2.08.22,4.22.33,6.33.11,2.11.02,4.22-.15,6.33"/>
  <path class="cls-1" d="M44.01,142c-1.2-.01-2.16-.82-3.53-.6-2.85.47-4.63,3.33-4.91,6.76"/>
  <path class="cls-1" d="M58.96,230.67c2.34,3.28,4.96,6.34,7.26,9.65.43.62.9,1.67,2.07,1.44"/>
  <path class="cls-1" d="M393.4,217.3c.12,1.95,1.59,3.2,2.49,4.73,1.23,2.09,2.25,4.31,3.83,6.19.12.14.02.46.02.69"/>
  <path class="cls-1" d="M55.79,230.67c-1.05,2.86-2.97,5.21-4.58,7.74-.79,1.24-1.23,2.77-2.92,3.48-.24-3.47.2-6.83-.24-10.17"/>
  <path class="cls-1" d="M68.11,228.91c.4,2.63.09,5.28.17,7.92.05,1.64,0,3.28,0,4.93"/>
  <path class="cls-1" d="M349.07,183.69c-.11-3.22.18-6.45-.15-9.68-.13-1.24,1.92-3.38,3.5-3.87,1.47-.45,3.07.27,4.05,1.75.68,1.03.96,2.07.91,3.35-.13,3.28-.04,6.57-.04,9.85"/>
  <path class="cls-1" d="M338.16,156.6c-.24-1.79-.49-3.57.87-5.11.44-.5.17-1.17.17-1.75.01-1.24.08-2.37,1.05-3.37.88-.91.27-2.21.51-3.33.36-1.72.7-1.99,2.51-1.97.98.01,1.99-.13,2.99-.13,5.92,0,11.85,0,17.77,0,1.39,0,1.97.95,2.08,2.11.08.92.23,1.89-.14,2.81"/>
  <path class="cls-1" d="M44.71,57.73c1.1,1.74-.08,3.19-.94,4.35-1.81,2.44-4.4,3.64-7.51,3.56"/>
  <path class="cls-1" d="M429.64,179.47v10.91"/>
  <path class="cls-1" d="M302.1,128.1c.65,2.08.28,4.22.33,6.33.08,3.52.02,7.04.02,10.56"/>
  <path class="cls-1" d="M256.53,218.35c.4,3.54.07,7.1.18,10.64"/>
  <path class="cls-1" d="M176.83,231.2c.11,2.99-.22,5.99.18,8.97.08.62-.63,1.09-.35,1.76"/>
  <path class="cls-1" d="M35.39,229.96c-.29,4.22-.14,8.44-.17,12.67-.02,2.93,0,5.86,0,8.8"/>
  <path class="cls-1" d="M353.29,104.53c.23.75.2,1.52.17,2.29-.1,2.64.25,5.28.18,7.92"/>
  <path class="cls-1" d="M426.65,80.25c.17,3.34-.26,6.69.18,10.03-1.35.8-1.37,2.26-1.54,3.52-.2,1.52-.11,3.11,1.01,4.39"/>
  <path class="cls-1" d="M191.08,251.43c-.44-4.96.93-9.82.73-14.78-.14-3.42-.04-3.39-3.37-4.07-1.17-.24-1.99-.21-2.86.87-2.2,2.75-4.83,5.14-7.18,7.77-.46.51-.94,1.04-1.75.71"/>
  <path class="cls-1" d="M307.9,206.39c-1.7-.9-3.45-.15-5.09.08-4.05.56-8.13,1.01-12.15,1.85-7.2,1.5-14.44,2.92-21.44,5.17-3.77,1.21-7.64,2.19-11.28,3.81-3.83,1.72-7.69,3.37-11.46,5.22-2.89,1.41-5.66,3-8.42,4.62-.68.4-1.35.77-1.58,1.59"/>
  <path class="cls-1" d="M98.54,225.92c-1.58-.93-3.27-.49-4.93-.35-4.29.37-8.57.73-12.84,1.21-.73.08-1.41.16-1.93.72"/>
  <path class="cls-1" d="M333.23,264.62h-9.85"/>
  <path class="cls-1" d="M186.16,232.6c-1.61-1.28-3.65-1.12-5.46-1.33-3.66-.41-7.24-1.3-10.89-1.74-.94-.11-1.77.16-2.65.07"/>
  <path class="cls-1" d="M296.11,187.56v9.85"/>
  <path class="cls-1" d="M73.21,111.91c-.37,2.87-.11,5.75-.17,8.62-.07,2.93.23,5.86.03,8.8-.11,1.57.23,3.16.14,4.75"/>
  <path class="cls-1" d="M90.28,29.4c-2.13.9-4.35.13-6.52.24-2.14.11-4.33.14-6.5.11-.66,0-1.36.15-1.94-.35"/>
  <path class="cls-1" d="M270.25,135.49c.06,3.23-.06,6.45.29,9.68.1.93-.17,2.04-.64,2.98"/>
  <path class="cls-1" d="M248.79,173.49c.29,2.52.14,5.04.18,7.56,0,.66-.11,1.35.35,1.94"/>
  <path class="cls-1" d="M57.9,188.8c-.08,3.17.18,6.34-.18,9.5"/>
  <path class="cls-1" d="M469.58,146.4c-.66-1.55-2.24-1.19-3.35-1.33-4.1-.54-7.65.94-10.71,3.64-.09.08.02.39-.19.51"/>
  <path class="cls-1" d="M221.7,146.4c.57,2.69.03,5.39.12,8.09.18,5.27.05,10.55.05,15.83"/>
  <path class="cls-1" d="M348.72,125.46c2.63.24,5.27.42,7.92.33,1.57-.06,2-.94,1.22-2.26-.4-.68-.8-1.4-1.57-1.77"/>
  <path class="cls-1" d="M320.57,152.38c.4,3.04.07,6.1.18,9.15"/>
  <path class="cls-1" d="M427.01,90.8c1.54,2.57,1.21,5.31-.26,7.8-.61,1.03-1.51,1.46-2.2,2.24-.71.79-1.26,1.66-.89,2.81"/>
  <path class="cls-1" d="M43.3,51.75c-.32.05-.6-.06-.9.33-1.54,1.98-3.05,3.99-4.54,6.01-.46.62-.84,1.27-1.77,1.05"/>
  <path class="cls-1" d="M435.63,108.4h-17.95c-.03-.18-.06-.36-.09-.55,2.58-1.87,4.78-4.45,8.54-4.06.97.1,2.01.23,2.99-.13.21-.08.56-.11.69,0,1.68,1.55,4.16,2.2,5.12,4.56"/>
  <path class="cls-1" d="M179.82,96.96c.1,7.1-.16,14.19.18,21.29"/>
  <path class="cls-1" d="M422.08,108.92c0,1.7.52,3.65-.13,5.04-.9,1.92-3.26,2.75-4.79,4.29-.99,1-2.52,1.47-3,2.98"/>
  <path class="cls-1" d="M327.96,152.73v8.8"/>
  <path class="cls-1" d="M210.26,107.34c1.07-.6,1.64-1.86,2.99-2.12,2.27-.44,4.57,1.3,5.28,4.06.23.87.16,1.76.18,2.77,2.05.37,3.9,1.15,4.93,3.21.87,1.75,1.22,3.54.7,5.46"/>
  <path class="cls-1" d="M35.74,232.78c1.11.67,2.38-.79,3.3.04,1.12,1.03,2.09,2.25,3.22,3.29,1.89,1.74,3.41,3.88,5.62,5.29"/>
  <path class="cls-1" d="M29.23,51.04c-.16,1.38,1.19,1.76,1.81,2.6,1.15,1.57,2.35,3.14,3.61,4.64.39.47.76.6,1.27.68"/>
  <path class="cls-1" d="M58.08,230.32c-1.85-.44-3.65.15-5.45.37-3.99.47-7.96,1.17-11.97,1.56-.55.05-1.04.09-1.23.71"/>
  <path class="cls-1" d="M17.79,117.19c-.1,2.87.21,5.75-.18,8.62"/>
  <path class="cls-1" d="M342.38,140.59c.04-2.03-.47-4.26,1.69-5.28h18.49c1.74,1.2,2.21,3.16,1.81,5.45"/>
  <path class="cls-1" d="M431.4,108.92c0,1.29-.02,2.58,0,3.87.01.87-.37,1.27-1.24,1.23-2.58-.11-5.18.27-7.74-.35"/>
  <path class="cls-1" d="M81.3,55.97c-4.05,0-8.09.24-12.14.35"/>
  <path class="cls-1" d="M431.23,114.03c1.78,1.87,3.8,3.49,5.84,5.06,1.09.85,1.67,2.29,3.14,2.68"/>
  <path class="cls-1" d="M69.52,52.27c3.92.4,7.86.06,11.79.18"/>
  <path class="cls-1" d="M481.72,112.79c-.3,2.75.63,5.55-.32,8.46-1.58-1.45-3.24-2.58-4.61-4.06"/>
  <path class="cls-1" d="M250.37,243.51c.64.45.53,1.12.53,1.76,0,2.05,0,4.11,0,6.16"/>
  <path class="cls-1" d="M69.69,48.58c3.52,0,7.04,0,10.56,0,.85,0,1.67-.04,2.46-.36"/>
  <path class="cls-1" d="M401.67,220.99c-.33,2.66-.37,5.33-.35,8"/>
  <path class="cls-1" d="M392.35,176.83c-.75,1.35-.23,2.82-.33,4.22-.09,1.22-.02,2.46-.02,3.69"/>
  <path class="cls-1" d="M156.78,141.82c-.89.02-1.75-.17-2.64-.2-2.2-.09-3.88.67-4.93,2.66"/>
  <path class="cls-1" d="M88.52,26.06c-.12.18-.24.18-.35.18-3.7.23-7.39.4-11.08,0"/>
  <path class="cls-1" d="M36.09,51.04v8.09"/>
  <path class="cls-1" d="M77.96,45.06c-1.93-.36-3.87-.08-5.81-.18-.65-.04-1.32.19-1.94-.17"/>
  <path class="cls-1" d="M83.06.38v16.19"/>
  <path class="cls-1" d="M57.73,144.64c1.12.35,2.29.41,3.36,1.03,1.78,1.05,1.83,2.69,1.75,4.42"/>
  <path class="cls-1" d="M295.94,168.21c.26,6.33.29,12.67,0,19"/>
  <path class="cls-1" d="M458.85,98.02h-11.96"/>
  <path class="cls-1" d="M303.68,177.36c-1.47-.09-1.95,1.37-2.93,2.02-1.07.71-2.13,1.57-3.07,2.54-1.03,1.08-2.07,1.05-3.14.01-1.9-1.85-3.76-3.75-5.64-5.62"/>
  <path class="cls-1" d="M20.08,180.18c-.87.11-1.26-.57-1.76-1.06-1.36-1.34-2.71-2.68-4.04-4.05-.36-.36-.7-.64-1.24-.52"/>
  <path class="cls-1" d="M27.12,173.84c-1.59,1.7-3.39,3.18-4.78,5.08-.44.6-.94,1.36-1.91,1.25"/>
  <path class="cls-1" d="M248.79,183.87c.28,2.35.28,4.69,0,7.04"/>
  <path class="cls-1" d="M296.99,121.41c1.35,1.52,2.26,3.34,3.48,4.96.51.68.82,1.4,1.8,1.38"/>
  <path class="cls-1" d="M173.84,100.3c0,.18-.07.44.01.51,1.98,1.59,3.45,3.78,5.79,4.94"/>
  <path class="cls-1" d="M226.97,147.8c-1.51,2.21-2.86,4.56-4.97,6.54-2.46-1.49-3.26-4.18-4.89-6.19"/>
  <path class="cls-1" d="M434.57,121.94c-.1,2.23.21,4.47-.18,6.69"/>
  <path class="cls-1" d="M418.03,122.12c.44,2.21-.11,4.48.35,6.69"/>
  <path class="cls-1" d="M419.79,151.67c-3.31-2.8-8.98-2.25-11.28.69-.32.4-.35.68-.15,1.07"/>
  <path class="cls-1" d="M85,44.89c-2.23,0-4.46,0-6.69,0"/>
  <path class="cls-1" d="M216.94,183.34c-2.22-.25-4.46-.16-6.69-.18"/>
  <path class="cls-1" d="M247.73,222.22c1.41,1.81,3.2,3.25,4.74,4.93.48.53,1.23.89,1.24,1.75"/>
  <path class="cls-1" d="M68.99,60.02c.02-1.41-.24-2.81-.17-4.22.15-3.35.28-6.71.86-10.03.63-3.64,1.48-7.22,2.66-10.73,1.18-3.51,2.95-6.75,4.95-9.83.8-1.24,2-2.06,3.67-1.79.63.1,1.3.11,1.93,0,3.48-.63,5.38,1.35,6.86,4.06,1.45,2.66,2.75,5.4,3.67,8.28,1.21,3.74,2.27,7.52,2.84,11.43.51,3.56.72,7.14.7,10.73,0,.42-.08.85.17,1.23"/>
  <path class="cls-1" d="M91.86,3.89c-2.47.98-4.64,2.58-7.2,3.39-.35.11-.67.33-1.07.31"/>
  <path class="cls-1" d="M113.32,111.91c0,1.41.03,2.82,0,4.22-.03,1.16.12,2.18.86,3.19,1.45,1.99,1.24,4.08-.32,5.78"/>
  <path class="cls-1" d="M468.35,175.95c0,.12.05.27,0,.35-1.79,2.22-3.51,4.5-6.15,5.81"/>
  <path class="cls-1" d="M344.49,134.96c-.03-1.72.6-3.13,2-4.25,4.39.15,8.85-.16,13.76.25,1,.8,2.47,1.83,1.83,3.99"/>
  <path class="cls-1" d="M83.59,3.37c1.51.27,3.04.4,4.57.34.77-.03,1.41.15,1.94.72"/>
  <path class="cls-1" d="M151.85,73.91c0,3.34,0,6.69.01,10.03,0,.32-.12.59-.19.88"/>
  <path class="cls-1" d="M307.9,121.41c-1.84,1.98-3.11,4.45-5.28,6.16"/>
  <path class="cls-1" d="M341.5,179.12c.11,2.11-.23,4.23.18,6.33"/>
  <path class="cls-1" d="M101.36,84.12c-.34,1.95-1.72,3.55-1.85,5.62-.03.52-.12,1.18-.26,1.76"/>
  <path class="cls-1" d="M485.06,160.47c.04,3.87-.12,7.74.18,11.61.03.38-.05.72-.18,1.06"/>
  <path class="cls-1" d="M455.68,176.66c1.58,1.58,3.16,3.18,4.76,4.74.47.46.85,1.26,1.75.71"/>
  <path class="cls-1" d="M112.97,125.64c.76-.07,1.33.52,2.11.57,1.98.12,2.48.98,2.14,2.95-.15.84-.61.89-1.26.88-1.47-.01-2.93-.05-4.4,0-1.77.07-2.31.64-2.46,2.45"/>
  <path class="cls-1" d="M63.01,192.84c-1.04,1.48-2.02,3-3.16,4.41-.52.65-.9,1.44-1.94,1.22"/>
  <path class="cls-1" d="M409.41,190.2v12.14"/>
  <path class="cls-1" d="M488.05,116.49c-1.65,1.41-2.79,3.29-4.4,4.75-.42.38-.72.93-1.41.88"/>
  <path class="cls-1" d="M36.26,59.49c-.24,4.17-.4,8.33.09,12.49"/>
  <path class="cls-1" d="M186.51,99.95c-2.17,1.63-3.95,3.7-6.16,5.28"/>
  <path class="cls-1" d="M73.39,33.27c2.04.36,4.11.12,6.16.18"/>
  <path class="cls-1" d="M112.62,125.81c-.15.28-.46.45-.71.51-2.64.67-2.99,1.36-1.93,3.89"/>
  <path class="cls-1" d="M441.26,154.14c-2.3-3.58-5.61-4.27-8.97-2.81"/>
  <path class="cls-1" d="M95.38,44.71c-1.93.3-3.87.13-5.81.18"/>
  <path class="cls-1" d="M89.4,55.97h-5.81"/>
  <path class="cls-1" d="M111.74,57.29c0-1.03,0-2.05,0-3.08,0-1.12-.3-2.35,1.19-2.79-.79-1.18-1.76-1.92-2.37-2.88-.62-.98-1.63-1.59-2.22-2.71-1.78,1.59-3.08,3.55-4.64,5.5,1.8.9,3.64.28,5.4.42.88.07,1.83-.28,2.64.35"/>
  <path class="cls-1" d="M481.37,121.24c.42.45.7.77.61,1.59-.19,1.67-.26,3.4.1,5.09"/>
  <path class="cls-1" d="M206.39,163.29c-.16,1.88-.36,3.75,0,5.63"/>
  <path class="cls-1" d="M183.69,163.29c0,1.88.04,3.76-.18,5.63"/>
  <path class="cls-1" d="M20.08,73.91c.75,1.76,1.29,3.6,1.76,5.45"/>
  <path class="cls-1" d="M353.47,131.09v30.61"/>
  <path class="cls-1" d="M53.51,193.19c1.46,1.76,2.18,4.14,4.4,5.28"/>
  <path class="cls-1" d="M358.22,125.46c2.02,1.26,1.75,3.35,1.94,5.28"/>
  <path class="cls-1" d="M105.41,52.27v5.37"/>
  <path class="cls-1" d="M395.51,158.36c-.81,1.14-1.48,2.37-2.28,3.52-.3.43-.64.79-1.23.7"/>
  <path class="cls-1" d="M379.86,84.82c-.29,1.64-.29,3.28,0,4.93"/>
  <path class="cls-1" d="M353.47,162.05v7.83"/>
  <path class="cls-1" d="M351.88,118.78c.94.48,1.93.1,2.8-.07,1.04-.21,1.29.54,1.75.97.58.55,0,1.17-.17,1.73-.17.6-.72.54-1.22.54-.94-.01-1.88,0-2.81,0-1.83,0-3.27,1.07-3.68,2.82-.38,1.61-1.77,2.8-1.82,4.57-.01.42-.09.82.05,1.23"/>
  <path class="cls-1" d="M108.57,52.27c-.38,1.63-.08,3.29-.18,4.93"/>
  <path class="cls-1" d="M426.65,99.6c1.77.68,3.09,1.7,2.81,3.87"/>
  <path class="cls-1" d="M146.57,150.27c-.08,1.59.1,3.17.18,4.75"/>
  <path class="cls-1" d="M80.42,150.27c.03,1.59-.16,3.17-.18,4.75"/>
  <path class="cls-1" d="M94.67,86.58c1.47.38,2.32,1.52,3.15,2.65.36.49.69.95,1.25,1.22"/>
  <path class="cls-1" d="M245.8,223.28c.41,1.87.06,3.76.18,5.63"/>
  <path class="cls-1" d="M417.68,243.69c-1.58-.2-3.17.49-4.75,0"/>
  <path class="cls-1" d="M254.77,187.74c-1.79.85-2.83,2.59-4.4,3.69"/>
  <path class="cls-1" d="M270.08,107.34c.5,1.52,1.56,2.86,1.41,4.57"/>
  <path class="cls-1" d="M399.91,85v4.66"/>
  <path class="cls-1" d="M327.43,107.34c.33,1.63.14,3.28.18,4.93"/>
  <path class="cls-1" d="M300.69,172.61c-.83.94-1.96,1.53-2.84,2.44-.98,1.03-2.02.97-3.15.02-.74-.62-1.23-1.56-2.29-1.76"/>
  <path class="cls-1" d="M374.93,140.24c1.45.38,2.93.08,4.4.18"/>
  <path class="cls-1" d="M22.19,122.47c-1.35,1.17-2.32,2.72-3.64,3.88-2.37-.48-3.57-2.44-5.15-3.88"/>
  <path class="cls-1" d="M141.65,115.26c.13,1.47.41,2.95-.18,4.4"/>
  <path class="cls-1" d="M358.74,243.51c-1.46.09-2.92.52-4.4.18"/>
  <path class="cls-1" d="M89.57,52.1c-1.48-.01-2.94.09-4.4.35"/>
  <path class="cls-1" d="M113.32,118.42c-2.54,1.4-2.87,3.93-.88,6.69"/>
  <path class="cls-1" d="M77.43,118.6c-.66-.15-1.01.32-1.41.7-.85.79-1.54,1.77-2.64,2.29"/>
  <path class="cls-1" d="M82.18,158.01c.28-.92.47-1.88-.54-2.44-1-.56-2.22-.46-3.12.05-.73.41-1.04,1.44-.57,2.4"/>
  <path class="cls-1" d="M465.71,243.69c1.41.05,2.82.1,4.22-.18"/>
  <path class="cls-1" d="M302.97,243.51c-1.41.12-2.8.53-4.22.18"/>
  <path class="cls-1" d="M252.66,179.47c-.89.66-1.52,1.58-2.07,2.49-.54.9-1.49,1.1-2.18,1.84-1.37-.92-2.33-2.21-3.49-3.27"/>
  <path class="cls-1" d="M79.37,23.25c-.48-2.57-.04-3.1,2.46-3,.82.04,1.64.03,2.46,0,2.36-.1,3.08.93,2.2,3.17"/>
  <path class="cls-1" d="M148.68,158.01c.38-1,.12-1.8-.7-2.47-1.01-.82-2.08-.27-2.97.06-1.06.4-.83,1.48-.55,2.4"/>
  <path class="cls-1" d="M147.45,77.08c1.33,1.14,2.27,2.75,4.05,3.34"/>
  <path class="cls-1" d="M105.23,87.99c-1,1.15-1.61,2.53-2.29,3.87"/>
  <path class="cls-1" d="M351,121.85c.06-.21-.05-.31-.17-.45-.41-.47-.31-1.42-.15-1.52,1.8-1.09.4-3.54,2.07-4.64.97-.64,1.93-.33,2.28.89.21.74.41,1.52.02,2.28"/>
  <path class="cls-1" d="M26.76,183.34c-1.58,1.58-3.19,3.14-4.74,4.76-.51.54-1.1.84-1.77,1.04"/>
  <path class="cls-1" d="M69.34,118.95c1.29.86,1.8,2.74,3.69,2.81"/>
  <path class="cls-1" d="M83.41,16.74c1.2.71,2.57,1.33,1.76,3.17"/>
  <path class="cls-1" d="M155.9,78.84c-1.29.99-2,2.65-3.69,3.17"/>
  <path class="cls-1" d="M277.99,108.4c.09.53-.14.91-.53,1.23-.73.6-1.15,1.39-1.41,2.29"/>
  <path class="cls-1" d="M78.31,41.37c0,2.36-.43,4.69-.53,7.04"/>
  <path class="cls-1" d="M77.78,48.76c-.24,2.4-.17,4.81-.18,7.21"/>
  <path class="cls-1" d="M191.61,229.61c.15,1.18.5,2.38-.18,3.52"/>
  <path class="cls-1" d="M96.43,56.14h-3.52"/>
  <path class="cls-1" d="M82.71,16.74c-1.16.74-2.12,1.59-1.76,3.17"/>
  <path class="cls-1" d="M249.84,143.93c-1.43.39-2.39,1.31-2.99,2.64"/>
  <path class="cls-1" d="M395.87,168.92c-1.21,1.02-2.05,2.44-3.52,3.17"/>
  <path class="cls-1" d="M364.55,180.18c.51,1.17-.22,2.35,0,3.52"/>
  <path class="cls-1" d="M16.91,77.78c1.05.83,2.69.89,3.17,2.46"/>
  <path class="cls-1" d="M274.12,107.69c-.44,1.14.11,2.38-.35,3.52"/>
  <path class="cls-1" d="M77.43,56.32c.45,1.11-.01,2.23,0,3.34"/>
  <path class="cls-1" d="M134.96,170.85c.47,1.08-.11,2.26.35,3.34"/>
  <path class="cls-1" d="M99.6,170.85v3.34"/>
  <path class="cls-1" d="M80.78,26.94c-.06,2.16-1.08,4.16-1.06,6.33"/>
  <path class="cls-1" d="M273.77,142.17c-1.05.88-1.38,2.53-2.99,2.81"/>
  <path class="cls-1" d="M79.37,33.8c-.18,2.35-.78,4.66-.7,7.04"/>
  <path class="cls-1" d="M87.46,42.6c0,1.47,0,2.94-.18,4.4"/>
  <path class="cls-1" d="M127.22,170.85v3.34"/>
  <path class="cls-1" d="M92.03,170.85c-.55.99.27,2.21-.53,3.17"/>
  <path class="cls-1" d="M388.83,160.12c1.02.72,1.17,2.45,2.81,2.46"/>
  <path class="cls-1" d="M405.89,192.84c.6,1.08,1.81,1.6,2.46,2.64"/>
  <path class="cls-1" d="M24.3,74.97c.15,1.03-.68,1.94-.35,2.99"/>
  <path class="cls-1" d="M97.84,184.57c-2.25.7-2.9,2.49-2.97,4.57-.08,2.17-.02,4.34-.02,6.65,1.85.47,3.75.14,5.63.2.72.02.98-.56.87-1.21-.37-2.22-.07-4.46-.17-6.69-.11-2.35-1.03-3.39-3.17-3.52"/>
</svg>